<svg xmlns="http://www.w3.org/2000/svg" viewBox="0 0 119.49 48.9"><defs><style>.cls-1{fill:#fff;}</style></defs><g id="Layer_2" data-name="Layer 2"><g id="Layer_1-2" data-name="Layer 1"><g id="Bag_Icon" data-name="Bag Icon"><path id="Shape" class="cls-1" d="M42.63,12.68a3,3,0,0,0,2.22-.09c0,1,0,3.42,0,4.62a18.53,18.53,0,0,1-.29,4.65c1.09.12,1.83,1.08,3,.7a17,17,0,0,1,1.66-.81c1-.17,2,.65,2.92.31,1.06-.4,1.54-.76,1.2-1.69-1.39-2.55-3.08-5.18-3.08-5.18h0c1.13-.25,1.35-1.48,0-2.14l1-.73-1.39-.47.52-1.59-3,1h0s-.75-1.32-1.9-1.33a1.78,1.78,0,0,0-1.41.58,1.47,1.47,0,0,0-.92-.77,1.5,1.5,0,0,0-1.86,1.16A1.74,1.74,0,0,0,42.63,12.68Zm5-.48a.7.7,0,0,1,.86.28.51.51,0,0,1-.23.75.7.7,0,0,1-.86-.28A.5.5,0,0,1,47.68,12.2Z"/><path id="Path" class="cls-1" d="M35.16,20.61a2,2,0,0,1,.93,1.62.43.43,0,0,0,.28.36,4.72,4.72,0,0,0,1.36.39c.78,0,1.38-.7,2.08-.62a7.34,7.34,0,0,1,.17-1c.47-2,.86-3.9-1.1-5.36s-5.47-1.61-9.54,2.5L32,21.19A2.38,2.38,0,0,1,35.16,20.61Z"/><path id="Shape-2" data-name="Shape" class="cls-1" d="M54.61,35.39c0-.56.12-1.11.18-1.66a35.54,35.54,0,0,0,.06-4.84c0-.59.09-1.16.09-1.72,0-1.4,0-2.67,0-3.57A2.38,2.38,0,0,0,54.51,22c-.55-.52-1.2.08-1.46.53s-.48.79-1,.85c-.7.08-1.13-.58-1.79-.78a3,3,0,0,0-2.07.43,2.67,2.67,0,0,1-2.08.34,3,3,0,0,1-.82-.65,1.28,1.28,0,0,0-1-.4c-.8.09-1.14,1.08-1.89,1.36a1.7,1.7,0,0,1-1.07.07,5.47,5.47,0,0,1-.91-.44,1.43,1.43,0,0,0-1-.15l-.25.11a5,5,0,0,1-.82.44,1.74,1.74,0,0,1-.82.06,2.69,2.69,0,0,1-1.43-.67c-1.28-1.12-1.57-.48-1.65.15a7.57,7.57,0,0,0-.34,2.81c.09.91.26,2.18.39,3.19.36,2.78.33,5.52.65,8.29.18,1.6,1.23,1.4,3.08,1.37.56,0,1.41-.13,3.22-.11.82,0,2.6-.13,3.53-.12,1.34,0,3,.1,4.4.12,2,0,2.61.07,3.86.07a1.14,1.14,0,0,0,1.28-1.1A17.38,17.38,0,0,1,54.61,35.39ZM53.2,38a18.73,18.73,0,0,1-3.05.24c-1.34-.06-2.61-.29-3.35-.24-.55,0-2.11,0-3.65.12-.8.08-1.79-.07-2.57,0-1.3.12-2.43.22-2.92.23-1,0-1.47-1-1.58-1.77-.26-1.85-.49-5.73-.79-7.72-.11-.77-.43-2.9-.52-3.67-.1-.93.32-1.09.82-1.11a2.93,2.93,0,0,0,1.75.66h.33l.12,0,.09,0,.1,0,.19-.05.08,0,.15,0,.07,0,.23-.1.08-.06a1,1,0,0,0,.26-.24l.22-.23h0a.66.66,0,0,1,.47-.14.67.67,0,0,1,.44.22l.23.24h0l.24.22h0a2.43,2.43,0,0,0,.25.2h0l.26.17h0a2.35,2.35,0,0,0,1.3.32,1.52,1.52,0,0,0,1.25-.75l.47-.82a.45.45,0,0,1,.7,0c.12.16.21.35.32.52a2,2,0,0,0,.28.35s0,0,0,0l.15.15,0,0a.79.79,0,0,0,.15.12l0,0,.15.11,0,0,.14.08.06,0,.14.06.06,0,.14.05.08,0,.13,0,.09,0,.13,0h.57l.12,0,.13,0,.11,0,.14,0,.11,0,.16-.06.09,0a1.42,1.42,0,0,0,.25-.12c.29-.14.57-.3.85-.46l0,0a1.11,1.11,0,0,1,1,0l.37.16.09,0,.13,0,.14,0,.24,0a2.21,2.21,0,0,0,.33-.05c.2-.06.44-.15.75-.27a.31.31,0,0,1,.13,0h0l0,0,.11,0h0l.23.09a.8.8,0,0,1,.21.15h0l.08.08h0a1,1,0,0,1,.17.42v0l0,.1v0a.34.34,0,0,1,0,.1v.16a15.16,15.16,0,0,1,0,2.22,8.16,8.16,0,0,0-.08,1.85,1,1,0,0,0,0,.16h0l0,.16h0c.27,1.8,0,5.17.17,6.45h0C53.82,37,53.94,37.86,53.2,38Z"/><path id="Path-2" data-name="Path" class="cls-1" d="M49.27,28.68c-.34,0-.69,0-1,0a5.8,5.8,0,0,1-1.11-.1,5.46,5.46,0,0,0-1.07,0l-2.29.07c-1.6.06-3.2.13-4.79.21-3.47.17-2.73.67-.24.66s6.83,0,10.41-.1c1,0,2-.13,3-.23a.53.53,0,0,0-.18-.54,1.12,1.12,0,0,0-.26-.08,4.51,4.51,0,0,0-1,0C50.19,28.6,49.73,28.65,49.27,28.68Z"/></g><path class="cls-1" d="M95,48.9H24.45a24.45,24.45,0,0,1,0-48.9H95a24.45,24.45,0,0,1,0,48.9ZM24.45,4a20.45,20.45,0,0,0,0,40.9H95A20.45,20.45,0,0,0,95,4Z"/><path class="cls-1" d="M71,24.44a15,15,0,0,1,.66-4.58,10.66,10.66,0,0,1,1.85-3.51,8.41,8.41,0,0,1,10.07-2.26,8,8,0,0,1,2.82,2.26,10.64,10.64,0,0,1,1.84,3.51,15,15,0,0,1,.66,4.58A15,15,0,0,1,88.22,29a10.79,10.79,0,0,1-1.84,3.52,8,8,0,0,1-2.82,2.27,8.27,8.27,0,0,1-3.62.8,8.07,8.07,0,0,1-6.45-3.07A10.81,10.81,0,0,1,71.64,29,15,15,0,0,1,71,24.44Zm5.44,0A11.86,11.86,0,0,0,76.67,27a7.42,7.42,0,0,0,.71,2,3.92,3.92,0,0,0,1.11,1.31,2.48,2.48,0,0,0,1.45.46,2.52,2.52,0,0,0,1.45-.46A3.79,3.79,0,0,0,82.49,29a7.78,7.78,0,0,0,.7-2,13.08,13.08,0,0,0,0-5.09,7.52,7.52,0,0,0-.7-2,3.8,3.8,0,0,0-1.1-1.29,2.45,2.45,0,0,0-1.45-.46,2.41,2.41,0,0,0-1.45.46,3.94,3.94,0,0,0-1.11,1.29,7.17,7.17,0,0,0-.71,2A11.89,11.89,0,0,0,76.42,24.44Z"/></g></g></svg>