<svg xmlns="http://www.w3.org/2000/svg" viewBox="0 0 432.73 72.88"><defs><style>.cls-1,.cls-2{fill:#fff;}.cls-1{stroke:#fff;stroke-miterlimit:10;}</style></defs><g id="Layer_2" data-name="Layer 2"><g id="Layer_1-2" data-name="Layer 1"><path class="cls-1" d="M74.56,28.05l-19.47-27,0,0A.52.52,0,0,0,55,1l0,0h0S54.8.7,54.74.69V.5H18.88c-.11,0-.21.23-.29.31L6.06,12.67a.51.51,0,0,0-.11.22.2.2,0,0,0,0,.07.41.41,0,0,0,0,.22s0,0,0,0l1.69,4.9a.32.32,0,0,0,.12.18L30.94,38.75a.24.24,0,0,0,.09.06L.86,45.29h0l0,0a.24.24,0,0,0-.12.07l0,0v0a.42.42,0,0,0-.07.13l0,0a.37.37,0,0,0,0,.18h0c0,.11,2.84,10.7,4.16,15.14a.43.43,0,0,0,.28.28c4,1.27,7.93,2.57,11.75,3.82,9.11,3,17.71,5.83,23.87,7.32h.1a.47.47,0,0,0,.17,0L52.2,67.11C58,64.43,62.62,62.3,69.12,59.39a.41.41,0,0,0,.23-.27c1.29-4.51,2-7.3,3.16-12.91ZM41,55.66l-3.09-.94-3.5-4.57L34.93,39l33.28,6.1.75,1a.4.4,0,0,0,.3.17l1.65.17C64.56,50.28,42.56,55.65,41,55.66Zm7.13-40.19.6,3.48a.36.36,0,0,0,.07.18l5,6.74L41.12,24.13l-4.19-5.68C41.59,18,45.61,17.06,48.12,15.47Zm-7,9.51,13.41,1.83L67.47,44.1l-32.72-6Zm30.6,20.68-2.21-.22-20-26.73-.66-3.9L54.81,2.13,73.75,28.36ZM19,1.34h35l-6,12.93c-2.36,1.7-6.71,2.88-11.88,3.3a.44.44,0,0,0-.22.07c-9.34.72-21.25-.89-28.94-4.89ZM8.39,17.73l-1.31-3.8c7.4,3.65,19.32,5.28,28.87,4.6l4.45,6-6.56,13.5-2.46,0ZM34.08,39l-.5,10.77L10.29,44.13ZM6.63,44.91,4.93,46l-1.77-.3ZM5.42,60.5c-1.14-3.89-3.28-12-3.9-14.27l3.42.59a.48.48,0,0,0,.29-.06l3.5-2.15,25,6.09,3.55,4.64a.45.45,0,0,0,.21.15l2.92.88-.2,15.06C34.16,69.92,25.8,67.17,17,64.26,13.2,63,9.33,61.74,5.42,60.5ZM68.6,58.7c-6.41,2.88-11,5-16.75,7.65-3.1,1.43-6.54,3-10.77,5l.2-14.84c3.23-.43,24-5.51,30.19-9.39C70.46,51.91,69.76,54.61,68.6,58.7Z"/><path class="cls-2" d="M270.68,9.78a28.62,28.62,0,0,0-28.59,28.59,1.15,1.15,0,1,0,2.29,0,26.32,26.32,0,1,1,7,17.84h6.21a1.15,1.15,0,0,0,0-2.29h-8.67c-.06,0-.1,0-.15,0l-.22,0a.81.81,0,0,0-.21.1s-.09,0-.13.06,0,0-.05.06a.79.79,0,0,0-.14.17,1.18,1.18,0,0,0-.13.18s0,.12-.07.18a1.11,1.11,0,0,0,0,.25s0,0,0,.06v8.68a1.15,1.15,0,0,0,2.29,0V58.14A28.59,28.59,0,1,0,270.68,9.78Z"/><path class="cls-2" d="M259.28,39.52h11.4a1.14,1.14,0,0,0,1.15-1.15v-18a1.15,1.15,0,0,0-2.29,0V37.23H259.28a1.15,1.15,0,1,0,0,2.29Z"/><path class="cls-2" d="M157.09,2.45a1,1,0,0,0-.6.31C145,15.58,134.24,30.81,134.24,44.89s10.26,25.56,23,25.56,23-11.52,23-25.56S169.48,15.58,158,2.76a1,1,0,0,0-.9-.31ZM157.24,5c11.06,12.51,21,27.14,21,39.88,0,13.07-9.45,23.56-21,23.56s-21-10.49-21-23.56c0-12.74,9.95-27.37,21-39.88ZM142.84,43.2a1,1,0,0,0-.75.91c-.49,5.49,2.23,11.85,6.28,14.81a1,1,0,1,0,1.28-1.54l-.12-.09c-3.24-2.36-5.89-8.34-5.47-13a1,1,0,0,0-.88-1.11A1,1,0,0,0,142.84,43.2Z"/><path class="cls-2" d="M99.09,39.3h6.12V33.18h3.84V39.3h6.09v3.84h-6.09v6.12h-3.84V43.14H99.09Z"/><path class="cls-2" d="M203.14,39.3h6.12V33.18h3.84V39.3h6.09v3.84H213.1v6.12h-3.84V43.14h-6.12Z"/><path class="cls-2" d="M432.73,35.9a25.34,25.34,0,0,0-25.31-25.31h-7.24A25.34,25.34,0,0,0,374.87,35.9a1.21,1.21,0,0,0,1.21,1.21h1.33a8.43,8.43,0,0,0-2.33,4.18,1.19,1.19,0,0,0-.21.64.82.82,0,0,0,.06.27,7.3,7.3,0,0,0-.06.94,8.41,8.41,0,0,0,2.54,6h-1.33a1.21,1.21,0,0,0-1.21,1.21V57.6a10.87,10.87,0,0,0,10.85,10.85h36.16A10.87,10.87,0,0,0,432.73,57.6V50.37a1.21,1.21,0,0,0-1.2-1.21h-1.34A8.43,8.43,0,0,0,432.52,45a1.19,1.19,0,0,0,.21-.64,1.17,1.17,0,0,0-.05-.27c0-.31.05-.62.05-.93a8.42,8.42,0,0,0-2.54-6h1.34A1.21,1.21,0,0,0,432.73,35.9Zm-2.41,15.67v6A8.45,8.45,0,0,1,421.88,66H385.72a8.45,8.45,0,0,1-8.44-8.44v-6h5.53l8.08,8.09a1.24,1.24,0,0,0,.86.35,1.18,1.18,0,0,0,.69-.22l11.74-8.22h26.14Zm-44.1,0H400l-8.1,5.67Zm-2.91-2.41a6,6,0,0,1-6-5.92,6.18,6.18,0,0,1,2.12.92,8.26,8.26,0,0,0,9.17,0,5.47,5.47,0,0,1,3.33-1,5.53,5.53,0,0,1,3.34,1,8.26,8.26,0,0,0,9.17,0,5.95,5.95,0,0,1,6.66,0,8.3,8.3,0,0,0,9.18,0,5.93,5.93,0,0,1,6.68,0,8.25,8.25,0,0,0,2.93,1.23,6,6,0,0,1-5.58,3.76Zm47-6.13a5.83,5.83,0,0,1-2.12-.93,8.32,8.32,0,0,0-9.18,0,5.88,5.88,0,0,1-6.68,0,8.28,8.28,0,0,0-9.17,0,5.9,5.9,0,0,1-6.66,0,8.26,8.26,0,0,0-9.17,0,5.91,5.91,0,0,1-6.67,0,8.07,8.07,0,0,0-2.93-1.24,6,6,0,0,1,5.58-3.76h41A6,6,0,0,1,430.31,43Zm-6-8.33h-47A22.94,22.94,0,0,1,400.18,13h7.24a22.94,22.94,0,0,1,22.87,21.7Z"/><path class="cls-2" d="M392.82,19.69a1.21,1.21,0,0,0-1.61-.54l-2.41,1.21a1.2,1.2,0,0,0,.54,2.28,1.24,1.24,0,0,0,.53-.12l2.42-1.21A1.21,1.21,0,0,0,392.82,19.69Z"/><path class="cls-2" d="M397,26.1l-2.57-.78a1.2,1.2,0,1,0-.71,2.3l2.58.79a1.48,1.48,0,0,0,.35.05,1.19,1.19,0,0,0,1.15-.85A1.2,1.2,0,0,0,397,26.1Z"/><path class="cls-2" d="M386.9,27.46l-1.77,2a1.21,1.21,0,0,0,.91,2,1.22,1.22,0,0,0,.91-.42l1.77-2a1.21,1.21,0,0,0-1.82-1.59Z"/><path class="cls-2" d="M401.77,19.31a1.2,1.2,0,0,0,.42-2.33L399.67,16a1.21,1.21,0,0,0-.85,2.26l2.52.95A1.29,1.29,0,0,0,401.77,19.31Z"/><path class="cls-2" d="M404.66,22.73a1.21,1.21,0,0,0-2.35.56l.63,2.63a1.21,1.21,0,0,0,1.17.92,1.43,1.43,0,0,0,.29,0,1.22,1.22,0,0,0,.89-1.46Z"/><path class="cls-2" d="M411.47,20.75a1.2,1.2,0,0,0,.61-1.59L411,16.7a1.2,1.2,0,0,0-1.59-.61,1.22,1.22,0,0,0-.61,1.6l1.1,2.46a1.21,1.21,0,0,0,1.1.71A1.06,1.06,0,0,0,411.47,20.75Z"/><path class="cls-2" d="M419.78,19.7a1.21,1.21,0,0,0-1.57.66l-1,2.5a1.21,1.21,0,0,0,2.24.91l1-2.5A1.21,1.21,0,0,0,419.78,19.7Z"/><path class="cls-2" d="M415.1,25.11a1.21,1.21,0,0,0-1.66-.38l-2.28,1.43a1.21,1.21,0,0,0,.64,2.23,1.24,1.24,0,0,0,.64-.18l2.28-1.44A1.2,1.2,0,0,0,415.1,25.11Z"/><path class="cls-2" d="M416.85,29.63,414.23,29a1.21,1.21,0,1,0-.57,2.35l2.61.64a1,1,0,0,0,.29,0,1.21,1.21,0,0,0,.29-2.38Z"/><path class="cls-2" d="M422,27.53,420.81,30a1.2,1.2,0,0,0,.56,1.61,1.24,1.24,0,0,0,.53.12A1.21,1.21,0,0,0,423,31l1.18-2.42A1.2,1.2,0,0,0,423.6,27,1.19,1.19,0,0,0,422,27.53Z"/><path class="cls-2" d="M403.51,30.1l-2.66-.42a1.2,1.2,0,1,0-.37,2.38l2.66.42h.19a1.2,1.2,0,0,0,.18-2.39Z"/><path class="cls-2" d="M327,36.17h16V40H327Zm0,6h16V46H327Z"/></g></g></svg>