<svg xmlns="http://www.w3.org/2000/svg" viewBox="0 0 487.55 232.29"><defs><style>.cls-1{fill:#fff;}</style></defs><g id="Layer_2" data-name="Layer 2"><g id="Layer_1-2" data-name="Layer 1"><path class="cls-1" d="M138.79.19c1.31.14,2.24.21,3.34.43,3.68.74,7.19,1.86,10,4.44,5.28,4.83,5.14,13.76-.26,18.76a19.69,19.69,0,0,1-10.55,4.7c-1.3.22-2.63.35-3.95.44-.58,0-.72.23-.71.77,0,1.64,0,3.29,0,4.93,0,.75-.13,1.06-1,1q-4.41-.08-8.84,0c-.85,0-1-.28-1-1,0-8.18,0-16.36,0-24.55,0-.95-.23-1.31-1.18-1.11-.24.05-.51,0-.75,0-.71.12-1-.15-.91-.87,0-.35.2-.78-.2-1.08V.43A38,38,0,0,1,126.74,0C130.77,0,134.81,0,138.79.19Zm-2.12,14.59v5c0,.39-.09.81.55.77,2.21-.14,4.38-.46,6.12-2a5,5,0,0,0-.84-8.25A12.18,12.18,0,0,0,137.45,9c-.62-.06-.81.13-.8.75C136.69,11.43,136.67,13.11,136.67,14.78Z"/><path class="cls-1" d="M248.71,21.85c-3.48,0-7,0-10.46,0-.81,0-1,.18-.67,1a7.14,7.14,0,0,0,6.23,4.44,14.7,14.7,0,0,0,9.82-2.41c.63-.4.86-.31,1.18.3,1.08,2.05,2.19,4.09,3.35,6.11.36.62.33.93-.3,1.35a20.49,20.49,0,0,1-9,3.35,23.77,23.77,0,0,1-12.08-1.15c-6.15-2.45-9.42-7.12-10.37-13.5a18.77,18.77,0,0,1,2-12.15c3.4-6.09,8.87-8.72,15.71-8.68,4.56,0,8.74,1.22,12,4.69a16.51,16.51,0,0,1,4.19,9.65,33,33,0,0,1,0,5.88c-.05.8-.28,1.23-1.29,1.2C255.54,21.79,252.13,21.85,248.71,21.85Zm-5.16-7.27c1.9,0,3.8,0,5.7,0,.73,0,.83-.21.7-.86a5.53,5.53,0,0,0-3.8-4.51,6.68,6.68,0,0,0-8.79,4.6c-.21.69,0,.77.59.76C239.82,14.57,241.68,14.58,243.55,14.58Z"/><path class="cls-1" d="M311.76,21.85c-3.49,0-7,0-10.46,0-.9,0-.94.27-.63,1,1.65,3.68,4.74,4.64,8.16,4.55A14.2,14.2,0,0,0,316,25.18c.5-.32.69-.22.93.29,1.08,2.25,2.17,4.5,3.31,6.72.29.56.05.74-.35,1a20.27,20.27,0,0,1-8,2.76,23.23,23.23,0,0,1-12.08-1.19A15.77,15.77,0,0,1,290,23.68a19.64,19.64,0,0,1,1-13.7c3.33-7.14,10.45-10,17.55-9.47a16.16,16.16,0,0,1,9.08,3.26c3.37,2.71,5,6.35,5.59,10.53a28.19,28.19,0,0,1,0,6.62c-.07.75-.34.95-1.07.94C318.74,21.83,315.25,21.85,311.76,21.85Zm-5.13-7.27c1.94,0,3.88,0,5.82,0,.48,0,.74-.06.63-.64a5.79,5.79,0,0,0-2.7-4.19,6.75,6.75,0,0,0-9.95,4.09c-.15.58,0,.75.59.74C302.89,14.57,304.76,14.58,306.63,14.58Z"/><path class="cls-1" d="M175,35.85c-8.83,0-16-5.47-17.7-13.81C155,10.73,162.67,1.82,172.74.83,180.1.1,186.21,2.5,190.26,8.76A17.5,17.5,0,0,1,178,35.65,20.16,20.16,0,0,1,175,35.85ZM167.25,18c0,2.87.87,5.2,3.06,6.86a7.83,7.83,0,0,0,10.8-1.34c2.74-3.57,2.16-9.32-1.27-11.89a7.63,7.63,0,0,0-8.32-.8C168.49,12.28,167.33,15,167.25,18Z"/><path class="cls-1" d="M195.59,22.47c0-4.11,0-8.22,0-12.32,0-.76-.2-1-1-.94-1.81.1-1.82.06-1.87-1.78-.05-2-.05-4-.17-6,0-.89.56-.72,1-.75,2.08-.12,4.16-.22,6.24-.28,4.49-.13,9-.18,13.39.89a19.44,19.44,0,0,1,8.18,3.86c5.32,4.47,5,12.88,1.1,17.54-2.93,3.47-6.88,5-11.19,5.83a19.54,19.54,0,0,1-3.95.46c-.88,0-1.07.37-1,1.16.06,1.53,0,3.07,0,4.61,0,.66-.14,1-.89.94q-4.47-.06-8.94,0c-.82,0-.93-.33-.93-1C195.6,30.61,195.59,26.54,195.59,22.47Zm10.73-7.57c0,1.72,0,3.44,0,5.15,0,.45.05.78.63.72A11.65,11.65,0,0,0,212,19.43a5.12,5.12,0,0,0,2.59-4.85,4.65,4.65,0,0,0-2.81-4.12A13.55,13.55,0,0,0,207,9.24c-.63-.08-.71.22-.7.73C206.33,11.62,206.32,13.26,206.32,14.9Z"/><path class="cls-1" d="M337.79.35c4.55,0,8.62,1.28,11.84,4.69.57.6.7,1,0,1.64C348,8.24,346.49,9.89,345,11.53c-.44.47-.7.53-1.19,0a8.77,8.77,0,0,0-5.37-2.69,4.9,4.9,0,0,0-2.73.39,1.82,1.82,0,0,0-.42,3.16,5.21,5.21,0,0,0,1.48.86c2.16.87,4.35,1.66,6.47,2.62,3.32,1.51,5.78,3.78,6.45,7.58.92,5.19-1.33,9.46-6.43,11.3a20.85,20.85,0,0,1-18-1.58c-.81-.46-.88-.86-.44-1.67,1-1.82,1.85-3.7,2.73-5.58.29-.62.54-.74,1.19-.39a15.51,15.51,0,0,0,8,2.11,4.87,4.87,0,0,0,1.78-.36,1.54,1.54,0,0,0,.48-2.69,6.35,6.35,0,0,0-2.36-1.23,45,45,0,0,1-6.75-2.78A10.65,10.65,0,0,1,326,5.23c1.93-2.75,4.81-4,8-4.58A22.52,22.52,0,0,1,337.79.35Z"/><path class="cls-1" d="M257,1.72c3.81,0,7.44,0,11.07,0,.63,0,.76.36,1,.79q2.77,6.21,5.56,12.42a2,2,0,0,0,.58,1l4.36-9.31c.65-1.39,1.29-2.79,1.94-4.18.16-.35.28-.68.81-.68,3.74,0,7.47,0,11.21,0,.11.54-.23.86-.42,1.22q-6,11.31-12,22.62a3.69,3.69,0,0,0-.46,1.83c0,2.5,0,5,0,7.51,0,.7-.18.91-.9.9-3.16,0-6.33,0-9.49,0-.66,0-.87-.17-.86-.84,0-2.5,0-5,0-7.5a4.46,4.46,0,0,0-.51-2.15Q263.19,14.18,257.57,3C257.38,2.66,257.21,2.27,257,1.72Z"/><path class="cls-1" d="M192,151.33H162.18L139.37,116v35.38H115.46v-92h37.21a36.41,36.41,0,0,1,13.42,2.26,25.81,25.81,0,0,1,9.45,6.16,26.09,26.09,0,0,1,5.62,9,31.43,31.43,0,0,1,1.89,11q0,10.49-5.07,17T163,113.63Zm-52.58-50.88h4.52q7.06,0,10.85-2.92a10,10,0,0,0,3.78-8.42q0-5.49-3.78-8.42t-10.85-2.93h-4.52Z"/><path class="cls-1" d="M225.87,59.34v92H202v-92Z"/><path class="cls-1" d="M289.92,99.84h47.46q0,7.32-.61,13.3a47.16,47.16,0,0,1-2.44,11.1,44.3,44.3,0,0,1-7,12.75,40.62,40.62,0,0,1-10.31,9.27,48,48,0,0,1-13,5.68,55.81,55.81,0,0,1-14.89,1.95,52.29,52.29,0,0,1-19.58-3.54,44.14,44.14,0,0,1-15.18-9.94A45,45,0,0,1,244.53,125,53.58,53.58,0,0,1,241,105.21a54,54,0,0,1,3.47-19.7,43.25,43.25,0,0,1,9.88-15.31,44.78,44.78,0,0,1,15.44-9.88,54.74,54.74,0,0,1,20.13-3.54q14.38,0,25.25,6.22t17.2,19.28l-22.69,9.39q-3.17-7.56-8.23-10.86a20.73,20.73,0,0,0-11.53-3.29,23.18,23.18,0,0,0-9.76,2,21.19,21.19,0,0,0-7.51,5.73,27.8,27.8,0,0,0-4.88,9A36.49,36.49,0,0,0,266,105.94a36.93,36.93,0,0,0,1.52,10.86,24.57,24.57,0,0,0,4.57,8.66,20.8,20.8,0,0,0,7.57,5.68,25.6,25.6,0,0,0,10.49,2,29,29,0,0,0,6.83-.79,18,18,0,0,0,5.92-2.57,14.47,14.47,0,0,0,4.33-4.57,18.35,18.35,0,0,0,2.32-6.83H289.92Z"/><path class="cls-1" d="M376.41,59.34v92H352.5v-92Z"/><path class="cls-1" d="M395.69,151.33v-92H419.6l44.16,56.24V59.34h23.79v92H463.76L419.6,95.09v56.24Z"/><path class="cls-1" d="M262,227.35a7.33,7.33,0,0,1-4.14-6.61,6.21,6.21,0,0,1,.77-3.7,3.13,3.13,0,0,1,2.65-1.38,3.4,3.4,0,0,1,2.15.52,1.93,1.93,0,0,1,.89,1.55,7.33,7.33,0,0,1-.09,1.54,4.33,4.33,0,0,1,0,.62,5.52,5.52,0,0,0,0,.92,3.2,3.2,0,0,0,2.33,2.88,16,16,0,0,0,6.2.84,12.59,12.59,0,0,0,6.37-1.43,4.05,4.05,0,0,0,2.14-3.85,3.73,3.73,0,0,0-1.18-2.6,9,9,0,0,0-2.73-1.78c-1.09-.47-2.61-1-4.57-1.69a57.32,57.32,0,0,1-6.15-2.31,12.48,12.48,0,0,1-4.12-3,7.65,7.65,0,0,1-1.86-5,9.24,9.24,0,0,1,1.62-5.69,12.23,12.23,0,0,1,5.16-4.13,21.86,21.86,0,0,1,8.09-1.8,19.46,19.46,0,0,1,6.44.67,10.46,10.46,0,0,1,4.8,2.76,7.31,7.31,0,0,1,2,4.81,7.91,7.91,0,0,1-.71,4.3,2.87,2.87,0,0,1-2.61,1.49,3.12,3.12,0,0,1-2.12-.67,2.19,2.19,0,0,1-.92-1.68,7.18,7.18,0,0,1,.07-1.56q.07-1.35.06-1.71a3.15,3.15,0,0,0-2.09-2.79,10.65,10.65,0,0,0-4.93-.78,11.66,11.66,0,0,0-6.23,1.69,4.4,4.4,0,0,0-2,4,4,4,0,0,0,1.25,2.8,9.42,9.42,0,0,0,2.89,1.87c1.15.49,2.74,1.07,4.8,1.75a56.83,56.83,0,0,1,6,2.35,12,12,0,0,1,3.92,3,7.65,7.65,0,0,1,1.8,4.76,8.73,8.73,0,0,1-3.93,8.18c-2.79,1.9-6.62,2.84-11.46,2.89Q266,229.45,262,227.35Z"/><path class="cls-1" d="M293.56,227.23a8.22,8.22,0,0,1-2.06-5.36,14.06,14.06,0,0,1,5.91-12.1,10.61,10.61,0,0,1,6.16-2,2,2,0,0,1,1.44.39,3.42,3.42,0,0,1,.67,1.4,11.93,11.93,0,0,1,2.11-.18c1.56,0,2.38.55,2.44,1.63a32.52,32.52,0,0,1-.46,4.61,41,41,0,0,0-.7,7.36,1.74,1.74,0,0,0,.42,1.12,1.27,1.27,0,0,0,1,.43,3.37,3.37,0,0,0,2.15-1.08,35.28,35.28,0,0,0,3.31-3.62,1.56,1.56,0,0,1,1.26-.63,1.22,1.22,0,0,1,1,.58,2.93,2.93,0,0,1,.46,1.55,3.91,3.91,0,0,1-.75,2.86,20.78,20.78,0,0,1-4,3.89,6.75,6.75,0,0,1-4.21,1.51,5,5,0,0,1-3-1.1,7.18,7.18,0,0,1-2.16-2.87c-1.53,2.54-3.58,3.78-6.13,3.73A6.49,6.49,0,0,1,293.56,227.23Zm8.36-3.64a7,7,0,0,0,1.23-3.14l1.32-8.42a5.63,5.63,0,0,0-3.65,1.43,9,9,0,0,0-2.52,3.66,11.52,11.52,0,0,0-.77,4.83,3.25,3.25,0,0,0,.72,2.1,2.2,2.2,0,0,0,1.7.7A2.47,2.47,0,0,0,301.92,223.59Z"/><path class="cls-1" d="M316,227.9a17.74,17.74,0,0,1-1.09-6A35.62,35.62,0,0,1,316,210.49a3.22,3.22,0,0,1,1.3-2,4.92,4.92,0,0,1,2.72-.6,2.79,2.79,0,0,1,1.36.24,1.06,1.06,0,0,1,.44.89,17.27,17.27,0,0,1-.52,3.36c-.25,1.24-.44,2.32-.58,3.25a31.62,31.62,0,0,0-.28,3.45,24.15,24.15,0,0,1,3.17-6.48,12.5,12.5,0,0,1,3.65-3.56,6.78,6.78,0,0,1,3.41-1,3,3,0,0,1,3.31,3.12,37.36,37.36,0,0,1-.64,6.65,30.36,30.36,0,0,0-.57,5.41c.07,1.26.58,1.91,1.51,1.94a3.44,3.44,0,0,0,2.22-1.09,34.2,34.2,0,0,0,3.3-3.68,1.51,1.51,0,0,1,1.25-.64,1.25,1.25,0,0,1,1,.6,3.19,3.19,0,0,1,.46,1.59,4.08,4.08,0,0,1-.72,2.93,18,18,0,0,1-4.2,4,8.78,8.78,0,0,1-5.33,1.42,5.24,5.24,0,0,1-3.8-1.52,6.29,6.29,0,0,1-1.51-4.06,28.67,28.67,0,0,1,.39-4.69,23.44,23.44,0,0,0,.38-4.08c0-.5-.22-.75-.58-.76s-1,.51-1.66,1.54a23.16,23.16,0,0,0-2.06,4.1,29.92,29.92,0,0,0-1.58,5.38,6.54,6.54,0,0,1-1.05,2.93,2.6,2.6,0,0,1-2.16.7A2.92,2.92,0,0,1,316,227.9Z"/><path class="cls-1" d="M366.85,221a3.31,3.31,0,0,1,.48,1.63,4.21,4.21,0,0,1-.69,3,19.63,19.63,0,0,1-4,4,7.21,7.21,0,0,1-4.56,1.57c-2.44-.09-4.41-1.6-5.89-4.5a11.77,11.77,0,0,1-3.31,3.3,6.59,6.59,0,0,1-3.49.73,6.86,6.86,0,0,1-5-2.35,9,9,0,0,1-2.27-5.7,14.8,14.8,0,0,1,1.18-7,13,13,0,0,1,4.14-5.25,12.22,12.22,0,0,1,6.24-2.37A59,59,0,0,1,352,192.16q2.1-6.61,6.23-6.67a4.34,4.34,0,0,1,3.52,1.86,10.28,10.28,0,0,1,1.76,5.73,36.9,36.9,0,0,1-1.72,12.73,82.4,82.4,0,0,1-6,14.81,11.43,11.43,0,0,0,1.12,4,2.17,2.17,0,0,0,1.75,1.26,3.65,3.65,0,0,0,2.57-1.09,29.65,29.65,0,0,0,3.33-3.8,1.51,1.51,0,0,1,1.25-.66A1.26,1.26,0,0,1,366.85,221Zm-18.36,4.31a11.79,11.79,0,0,0,2.13-2.69,33.42,33.42,0,0,1-.88-5.84c-.05-.76-.1-2-.15-3.74a7.12,7.12,0,0,0-4.16,3.43,10.17,10.17,0,0,0-1.36,6q.23,3.5,2.64,3.57A2.61,2.61,0,0,0,348.49,225.29Zm8-31.79a58,58,0,0,0-1,8.53c-.19,3.5-.24,7.17-.17,11,3-7.8,4.37-14.15,4-18.92a10.93,10.93,0,0,0-.51-2.86c-.25-.68-.52-1-.81-1C357.46,190.24,356.93,191.33,356.48,193.5Z"/><path class="cls-1" d="M399.25,216.65a1.42,1.42,0,0,1,1.14.5,2.41,2.41,0,0,1,.5,1.36,4.36,4.36,0,0,1-.38,2.45,2.94,2.94,0,0,1-1.62,1.28,13.82,13.82,0,0,1-4.65.74,13.38,13.38,0,0,1-4-.63q-1.21,2.34-2.7,4.8a14.84,14.84,0,0,1-3,3.83,4.59,4.59,0,0,1-3,1,3.63,3.63,0,0,1-3-1.61,12,12,0,0,1-1.61-5.07l-.51-3.6a42.14,42.14,0,0,1-2.2,6.25,7.51,7.51,0,0,1-2.14,2.93,4.2,4.2,0,0,1-2.71.75,4.08,4.08,0,0,1-3.22-1.66,11.06,11.06,0,0,1-1.78-5q-1.06-6.85-1.42-12l-.12-1.7a2.56,2.56,0,0,1,.7-2.23,3.74,3.74,0,0,1,2.39-.6,2.83,2.83,0,0,1,1.89.58,2.71,2.71,0,0,1,.73,1.89q.41,5.63,1.74,14.66a150.2,150.2,0,0,0,4.92-14.54,3.6,3.6,0,0,1,1.12-2,2.93,2.93,0,0,1,1.76-.51,2.58,2.58,0,0,1,1.83.55,3.08,3.08,0,0,1,.65,1.93c.29,3.8.88,8.73,1.8,14.82,1.7-2.9,3-5.24,3.78-7a8.11,8.11,0,0,1-1-3.44,7.5,7.5,0,0,1,.46-3.28,6.28,6.28,0,0,1,1.76-2.58,4.15,4.15,0,0,1,2.75-1,3,3,0,0,1,2.32,1,4.79,4.79,0,0,1,1.1,3,13.76,13.76,0,0,1-.74,5.16,30.25,30.25,0,0,0,4.78-.76l1.27-.25A1.7,1.7,0,0,1,399.25,216.65Z"/><path class="cls-1" d="M399,229.94a12.39,12.39,0,0,1-1.91-6.14,40,40,0,0,1,.08-5.81,55.06,55.06,0,0,1,.89-6.61,4,4,0,0,1,1-2.23,3.31,3.31,0,0,1,2.24-.63c1.62,0,2.48.53,2.58,1.67a41.47,41.47,0,0,1-.43,5.88,46.31,46.31,0,0,0-.54,7.53,6,6,0,0,0,.58,2.32,1.46,1.46,0,0,0,1.36.81,3.19,3.19,0,0,0,2.06-1.27,36.64,36.64,0,0,0,3.12-4,1.55,1.55,0,0,1,1.24-.73,1.18,1.18,0,0,1,1,.59,3.48,3.48,0,0,1,.5,1.68,4.64,4.64,0,0,1-.64,3.17c-2.83,4.14-5.63,6.18-8.39,6.16A5.43,5.43,0,0,1,399,229.94Zm-.18-25.69a3.9,3.9,0,0,1-1.22-2.73,3.59,3.59,0,0,1,1.07-3,4.46,4.46,0,0,1,3.17-1.26,4.52,4.52,0,0,1,2.93.83,3.34,3.34,0,0,1,1.31,2.54,4.06,4.06,0,0,1-1,3.25,4.25,4.25,0,0,1-3.19,1.25A4.35,4.35,0,0,1,398.82,204.25Z"/><path class="cls-1" d="M411.28,229.47a11.25,11.25,0,0,1-3.24-7.42,15.52,15.52,0,0,1,.93-7.23,11.28,11.28,0,0,1,3.57-4.86,8.58,8.58,0,0,1,5-1.84,5.4,5.4,0,0,1,4.22,1.51,6.6,6.6,0,0,1,1.83,4.23,6.82,6.82,0,0,1-.56,3.68,2.48,2.48,0,0,1-2.2,1.56,2.28,2.28,0,0,1-1.5-.42,1.71,1.71,0,0,1-.66-1.26,4,4,0,0,1,0-.83c0-.31.06-.53.08-.67a4.53,4.53,0,0,0,.12-1.44,1.59,1.59,0,0,0-.4-1,1.19,1.19,0,0,0-.92-.33,2.59,2.59,0,0,0-2,1.11,7,7,0,0,0-1.29,2.86,12.32,12.32,0,0,0-.25,3.94c.34,3.94,2.12,5.9,5.36,5.84a7.66,7.66,0,0,0,4.12-1.51,16,16,0,0,0,4.12-4.39,1.54,1.54,0,0,1,1.23-.77,1.15,1.15,0,0,1,1,.58,3.55,3.55,0,0,1,.52,1.69,5.18,5.18,0,0,1-.63,3.24,14.23,14.23,0,0,1-5,4.77,12.31,12.31,0,0,1-5.94,1.73A10.16,10.16,0,0,1,411.28,229.47Z"/><path class="cls-1" d="M444.52,207.48a3.7,3.7,0,0,1,1,2.48,43.18,43.18,0,0,1-.05,5.16q-.18,3.23-.2,6.09a61.51,61.51,0,0,0,.3,6.37,4.32,4.32,0,0,1-.48,2.9,3,3,0,0,1-2.35,1,2.89,2.89,0,0,1-2.39-.77,4.29,4.29,0,0,1-1-2.62,56.8,56.8,0,0,1,0-6.91,52.72,52.72,0,0,0,.09-5.34c-.05-.55-.25-.82-.6-.8s-.95.64-1.61,1.85a25.09,25.09,0,0,0-1.88,4.71,37.9,37.9,0,0,0-1.33,6.1,8.18,8.18,0,0,1-.93,3.34,2.51,2.51,0,0,1-2.11.93,2.55,2.55,0,0,1-2.3-1.1,9.42,9.42,0,0,1-1.25-3.56q-.45-2.42-.87-7.1a96,96,0,0,1,.06-16.6,52.18,52.18,0,0,1,3.15-14.73q2.38-6.06,6.46-6.43a4.1,4.1,0,0,1,3.71,1.74,9.6,9.6,0,0,1,1.84,5.21,24.38,24.38,0,0,1-1.81,11.14,64,64,0,0,1-8,13.73c.06,1.8.18,3.65.35,5.55a30.13,30.13,0,0,1,2.87-7.36,14.14,14.14,0,0,1,3.46-4.21,6.56,6.56,0,0,1,3.35-1.44A3,3,0,0,1,444.52,207.48Zm-10.38-17a47.75,47.75,0,0,0-1.38,7.34q-.57,4.59-.71,10a36,36,0,0,0,4.14-8.55,20.45,20.45,0,0,0,1.19-8.24,7.49,7.49,0,0,0-.56-2.52c-.27-.56-.61-.83-1-.8C435.23,187.71,434.67,188.65,434.14,190.48Z"/><path class="cls-1" d="M50.17,75.17A30.17,30.17,0,1,1,20,105.33,30.19,30.19,0,0,1,50.17,75.17m0-20a50.17,50.17,0,1,0,50.16,50.16A50.17,50.17,0,0,0,50.17,55.17Z"/><path class="cls-1" d="M50.17,95.79a9.55,9.55,0,1,1-9.55,9.54,9.55,9.55,0,0,1,9.55-9.54m0-15.4a24.95,24.95,0,1,0,24.94,24.94A24.95,24.95,0,0,0,50.17,80.39Z"/></g></g></svg>