<svg xmlns="http://www.w3.org/2000/svg" viewBox="0 0 487.55 314.32"><defs><style>.cls-1{fill:#fff;}.cls-2{fill:#43cad7;}.cls-3{fill:#282828;}</style></defs><g id="Layer_2" data-name="Layer 2"><g id="Layer_1-2" data-name="Layer 1"><path class="cls-1" d="M138.79,82.21c1.31.14,2.24.22,3.34.44,3.68.73,7.19,1.85,10,4.43,5.28,4.83,5.14,13.76-.26,18.76a19.62,19.62,0,0,1-10.55,4.7c-1.3.22-2.63.35-3.95.44-.58,0-.72.23-.71.77,0,1.64,0,3.29,0,4.93,0,.76-.13,1.06-1,1q-4.41-.09-8.84,0c-.85,0-1-.29-1-1,0-8.18,0-16.36,0-24.54,0-1-.23-1.32-1.18-1.12-.24,0-.51,0-.75,0-.71.12-1-.15-.91-.86,0-.36.2-.79-.2-1.09V82.45a38,38,0,0,1,3.88-.43C130.77,82,134.81,82,138.79,82.21Zm-2.12,14.6v5c0,.39-.09.81.55.77,2.21-.14,4.38-.46,6.12-2a5,5,0,0,0-.84-8.26A12.49,12.49,0,0,0,137.45,91c-.62-.06-.81.14-.8.75C136.69,93.45,136.67,95.13,136.67,96.81Z"/><path class="cls-1" d="M248.71,103.87c-3.48,0-7,0-10.46,0-.81,0-1,.17-.67,1a7.13,7.13,0,0,0,6.23,4.44,14.7,14.7,0,0,0,9.82-2.41c.63-.4.86-.31,1.18.3,1.08,2.06,2.19,4.1,3.35,6.11.36.62.33.93-.3,1.35a20.49,20.49,0,0,1-9,3.35,23.66,23.66,0,0,1-12.08-1.15c-6.15-2.44-9.42-7.12-10.37-13.5a18.78,18.78,0,0,1,2-12.15c3.4-6.09,8.87-8.72,15.71-8.68,4.56,0,8.74,1.23,12,4.69a16.51,16.51,0,0,1,4.19,9.66,32.89,32.89,0,0,1,0,5.87c-.05.8-.28,1.23-1.29,1.2C255.54,103.82,252.13,103.87,248.71,103.87Zm-5.16-7.26c1.9,0,3.8,0,5.7,0,.73,0,.83-.21.7-.86a5.55,5.55,0,0,0-3.8-4.51,6.68,6.68,0,0,0-8.79,4.6c-.21.69,0,.77.59.77C239.82,96.59,241.68,96.61,243.55,96.61Z"/><path class="cls-1" d="M311.76,103.87c-3.49,0-7,0-10.46,0-.9,0-.94.28-.63,1,1.65,3.68,4.74,4.65,8.16,4.55A14.11,14.11,0,0,0,316,107.2c.5-.32.69-.22.93.29,1.08,2.26,2.17,4.5,3.31,6.73.29.55.05.73-.35,1a20.11,20.11,0,0,1-8,2.76,23.23,23.23,0,0,1-12.08-1.19A15.77,15.77,0,0,1,290,105.71a19.63,19.63,0,0,1,1-13.7c3.33-7.15,10.45-10.05,17.55-9.48a16.16,16.16,0,0,1,9.08,3.26c3.37,2.71,5,6.36,5.59,10.53a28.19,28.19,0,0,1,0,6.62c-.07.75-.34,1-1.07.94C318.74,103.85,315.25,103.87,311.76,103.87Zm-5.13-7.26c1.94,0,3.88,0,5.82,0,.48,0,.74,0,.63-.64a5.81,5.81,0,0,0-2.7-4.19,6.75,6.75,0,0,0-9.95,4.1c-.15.58,0,.75.59.74C302.89,96.59,304.76,96.61,306.63,96.61Z"/><path class="cls-1" d="M175,117.87c-8.83,0-16-5.47-17.7-13.81-2.26-11.31,5.4-20.22,15.47-21.21,7.36-.72,13.47,1.67,17.52,7.94A17.49,17.49,0,0,1,178,117.67,20.16,20.16,0,0,1,175,117.87ZM167.25,100c0,2.87.87,5.2,3.06,6.86a7.83,7.83,0,0,0,10.8-1.34c2.74-3.57,2.16-9.32-1.27-11.89a7.63,7.63,0,0,0-8.32-.79C168.49,94.3,167.33,97,167.25,100Z"/><path class="cls-1" d="M195.59,104.49c0-4.11,0-8.21,0-12.32,0-.76-.2-1-1-.94-1.81.1-1.82.06-1.87-1.78-.05-2-.05-4-.17-6,0-.88.56-.72,1-.74q3.12-.19,6.24-.29c4.49-.13,9-.18,13.39.89a19.56,19.56,0,0,1,8.18,3.86c5.32,4.47,5,12.88,1.1,17.54-2.93,3.47-6.88,5-11.19,5.83a19.54,19.54,0,0,1-3.95.46c-.88,0-1.07.37-1,1.16.06,1.54,0,3.07,0,4.61,0,.66-.14,1-.89.94q-4.47-.06-8.94,0c-.82,0-.93-.33-.93-1C195.6,112.63,195.59,108.56,195.59,104.49Zm10.73-7.56c0,1.71,0,3.43,0,5.14,0,.45.05.79.63.72a11.65,11.65,0,0,0,5.05-1.34,5.11,5.11,0,0,0,2.59-4.85,4.65,4.65,0,0,0-2.81-4.12A13.77,13.77,0,0,0,207,91.26c-.63-.07-.71.23-.7.74C206.33,93.64,206.32,95.28,206.32,96.93Z"/><path class="cls-1" d="M337.79,82.37c4.55,0,8.62,1.28,11.84,4.69.57.6.7,1,0,1.64-1.62,1.57-3.17,3.21-4.71,4.86-.44.46-.7.52-1.19,0a8.84,8.84,0,0,0-5.37-2.7,4.82,4.82,0,0,0-2.73.4,1.81,1.81,0,0,0-.42,3.15,5.21,5.21,0,0,0,1.48.86c2.16.87,4.35,1.66,6.47,2.62,3.32,1.51,5.78,3.78,6.45,7.58.92,5.19-1.33,9.46-6.43,11.3a20.82,20.82,0,0,1-18-1.58c-.81-.46-.88-.86-.44-1.67,1-1.82,1.85-3.7,2.73-5.57.29-.62.54-.75,1.19-.39a15.5,15.5,0,0,0,8,2.1,4.68,4.68,0,0,0,1.78-.36,1.54,1.54,0,0,0,.48-2.69,6.5,6.5,0,0,0-2.36-1.23,45,45,0,0,1-6.75-2.78A10.65,10.65,0,0,1,326,87.25c1.93-2.75,4.81-4,8-4.58A22.52,22.52,0,0,1,337.79,82.37Z"/><path class="cls-1" d="M257,83.74c3.81,0,7.44,0,11.07,0,.63,0,.76.36,1,.79q2.77,6.22,5.56,12.42a2,2,0,0,0,.58,1l4.36-9.32c.65-1.39,1.29-2.78,1.94-4.18.16-.35.28-.68.81-.67,3.74,0,7.47,0,11.21,0,.11.54-.23.86-.42,1.22q-6,11.33-12,22.62a3.69,3.69,0,0,0-.46,1.83c0,2.51,0,5,0,7.51,0,.7-.18.91-.9.9-3.16,0-6.33,0-9.49,0-.66,0-.87-.17-.86-.84,0-2.5,0-5,0-7.5a4.46,4.46,0,0,0-.51-2.15q-5.65-11.13-11.27-22.28C257.38,84.68,257.21,84.29,257,83.74Z"/><path class="cls-1" d="M192,233.35H162.18L139.37,198v35.38H115.46v-92h37.21a36.41,36.41,0,0,1,13.42,2.26,25.31,25.31,0,0,1,15.07,15.19,31.43,31.43,0,0,1,1.89,11q0,10.49-5.07,17T163,195.65Zm-52.58-50.87h4.52q7.06,0,10.85-2.93t3.78-8.42q0-5.49-3.78-8.42t-10.85-2.93h-4.52Z"/><path class="cls-1" d="M225.87,141.36v92H202v-92Z"/><path class="cls-1" d="M289.92,181.87h47.46q0,7.32-.61,13.29a47.36,47.36,0,0,1-2.44,11.11,44.24,44.24,0,0,1-7,12.74,40.47,40.47,0,0,1-10.31,9.28,48.31,48.31,0,0,1-13,5.67,55.81,55.81,0,0,1-14.89,1.95,52.29,52.29,0,0,1-19.58-3.54,44,44,0,0,1-15.18-9.94,44.89,44.89,0,0,1-9.89-15.37,57.56,57.56,0,0,1-.06-39.53,43.25,43.25,0,0,1,9.88-15.31,44.93,44.93,0,0,1,15.44-9.88,54.74,54.74,0,0,1,20.13-3.54q14.38,0,25.25,6.22t17.2,19.28l-22.69,9.39q-3.17-7.56-8.23-10.86a20.73,20.73,0,0,0-11.53-3.29,23.18,23.18,0,0,0-9.76,2,21.21,21.21,0,0,0-7.51,5.74,27.64,27.64,0,0,0-4.88,9,39.7,39.7,0,0,0-.24,22.57,24.61,24.61,0,0,0,4.57,8.67,20.67,20.67,0,0,0,7.57,5.67,25.6,25.6,0,0,0,10.49,2,29,29,0,0,0,6.83-.79,18,18,0,0,0,5.92-2.56,14.61,14.61,0,0,0,4.33-4.58,18.35,18.35,0,0,0,2.32-6.83H289.92Z"/><path class="cls-1" d="M376.41,141.36v92H352.5v-92Z"/><path class="cls-1" d="M395.69,233.35v-92H419.6l44.16,56.24V141.36h23.79v92H463.76L419.6,177.11v56.24Z"/><path class="cls-1" d="M262,309.37a7.33,7.33,0,0,1-4.14-6.61,6.23,6.23,0,0,1,.77-3.7,3.13,3.13,0,0,1,2.65-1.38,3.47,3.47,0,0,1,2.15.52,1.93,1.93,0,0,1,.89,1.55,7.29,7.29,0,0,1-.09,1.54,4.26,4.26,0,0,1,0,.62,5.52,5.52,0,0,0,0,.92,3.19,3.19,0,0,0,2.33,2.88,16.21,16.21,0,0,0,6.2.85,12.69,12.69,0,0,0,6.37-1.44,4,4,0,0,0,2.14-3.85,3.73,3.73,0,0,0-1.18-2.6,9,9,0,0,0-2.73-1.78q-1.63-.7-4.57-1.69a57.32,57.32,0,0,1-6.15-2.31,12.34,12.34,0,0,1-4.12-3,7.64,7.64,0,0,1-1.86-5,9.25,9.25,0,0,1,1.62-5.7,12.38,12.38,0,0,1,5.16-4.13,21.86,21.86,0,0,1,8.09-1.8,19.72,19.72,0,0,1,6.44.67,10.48,10.48,0,0,1,4.8,2.77,7.27,7.27,0,0,1,2,4.81,7.87,7.87,0,0,1-.71,4.29,2.9,2.9,0,0,1-2.61,1.5,3.18,3.18,0,0,1-2.12-.68,2.19,2.19,0,0,1-.92-1.67,7.24,7.24,0,0,1,.07-1.57q.07-1.35.06-1.71a3.15,3.15,0,0,0-2.09-2.79,10.91,10.91,0,0,0-4.93-.78,11.66,11.66,0,0,0-6.23,1.69,4.41,4.41,0,0,0-2,4,4,4,0,0,0,1.25,2.8,9.24,9.24,0,0,0,2.89,1.87c1.15.49,2.74,1.07,4.8,1.75a61.6,61.6,0,0,1,6,2.35,11.94,11.94,0,0,1,3.92,3,7.6,7.6,0,0,1,1.8,4.75,8.73,8.73,0,0,1-3.93,8.18c-2.79,1.9-6.62,2.84-11.46,2.9Q266,311.46,262,309.37Z"/><path class="cls-1" d="M293.56,309.25a8.22,8.22,0,0,1-2.06-5.36,13.59,13.59,0,0,1,1.44-6.86,13.73,13.73,0,0,1,4.47-5.24,10.53,10.53,0,0,1,6.16-2,2,2,0,0,1,1.44.39,3.29,3.29,0,0,1,.67,1.4,11.05,11.05,0,0,1,2.11-.18c1.56,0,2.38.55,2.44,1.62a32.4,32.4,0,0,1-.46,4.61,41,41,0,0,0-.7,7.37,1.73,1.73,0,0,0,.42,1.11,1.32,1.32,0,0,0,1,.44,3.4,3.4,0,0,0,2.15-1.09,34.23,34.23,0,0,0,3.31-3.62,1.58,1.58,0,0,1,1.26-.62,1.21,1.21,0,0,1,1,.57,3,3,0,0,1,.46,1.55,4,4,0,0,1-.75,2.87,21.09,21.09,0,0,1-4,3.89,6.87,6.87,0,0,1-4.21,1.51,5.07,5.07,0,0,1-3-1.11,7.11,7.11,0,0,1-2.16-2.87c-1.53,2.54-3.58,3.78-6.13,3.73A6.49,6.49,0,0,1,293.56,309.25Zm8.36-3.63a7.08,7.08,0,0,0,1.23-3.15l1.32-8.42a5.63,5.63,0,0,0-3.65,1.43,9,9,0,0,0-2.52,3.66,11.52,11.52,0,0,0-.77,4.83,3.25,3.25,0,0,0,.72,2.1,2.24,2.24,0,0,0,1.7.71A2.5,2.5,0,0,0,301.92,305.62Z"/><path class="cls-1" d="M316,309.92a17.69,17.69,0,0,1-1.09-6A35.56,35.56,0,0,1,316,292.52a3.25,3.25,0,0,1,1.3-2A4.92,4.92,0,0,1,320,290a2.91,2.91,0,0,1,1.36.24,1.07,1.07,0,0,1,.44.9,17.32,17.32,0,0,1-.52,3.35c-.25,1.24-.44,2.32-.58,3.26a31.41,31.41,0,0,0-.28,3.44,24.45,24.45,0,0,1,3.17-6.48,12.63,12.63,0,0,1,3.65-3.56,6.66,6.66,0,0,1,3.41-1,3,3,0,0,1,3.31,3.11,37.36,37.36,0,0,1-.64,6.65,30.37,30.37,0,0,0-.57,5.42c.07,1.26.58,1.9,1.51,1.93a3.4,3.4,0,0,0,2.22-1.09,33.23,33.23,0,0,0,3.3-3.68,1.5,1.5,0,0,1,1.25-.63,1.26,1.26,0,0,1,1,.59,3.19,3.19,0,0,1,.46,1.59,4.08,4.08,0,0,1-.72,2.93,17.75,17.75,0,0,1-4.2,4,8.78,8.78,0,0,1-5.33,1.42,5.2,5.2,0,0,1-3.8-1.52,6.29,6.29,0,0,1-1.51-4.06,28.67,28.67,0,0,1,.39-4.69,23.42,23.42,0,0,0,.38-4.07c0-.5-.22-.76-.58-.77s-1,.51-1.66,1.54a23.52,23.52,0,0,0-2.06,4.1,29.92,29.92,0,0,0-1.58,5.38,6.49,6.49,0,0,1-1.05,2.93,2.63,2.63,0,0,1-2.16.71A2.94,2.94,0,0,1,316,309.92Z"/><path class="cls-1" d="M366.85,303a3.24,3.24,0,0,1,.48,1.62,4.24,4.24,0,0,1-.69,3,19.83,19.83,0,0,1-4,4,7.21,7.21,0,0,1-4.56,1.57c-2.44-.09-4.41-1.59-5.89-4.5a11.77,11.77,0,0,1-3.31,3.3,6.59,6.59,0,0,1-3.49.74,6.93,6.93,0,0,1-5-2.35,9,9,0,0,1-2.27-5.7,14.76,14.76,0,0,1,1.18-7,13,13,0,0,1,4.14-5.26,12.12,12.12,0,0,1,6.24-2.36A59,59,0,0,1,352,274.18q2.1-6.62,6.23-6.67a4.34,4.34,0,0,1,3.52,1.86,10.34,10.34,0,0,1,1.76,5.73,36.87,36.87,0,0,1-1.72,12.73,82.11,82.11,0,0,1-6,14.81,11.36,11.36,0,0,0,1.12,4,2.17,2.17,0,0,0,1.75,1.26,3.65,3.65,0,0,0,2.57-1.09,29.65,29.65,0,0,0,3.33-3.8,1.52,1.52,0,0,1,1.25-.65A1.23,1.23,0,0,1,366.85,303Zm-18.36,4.31a12.13,12.13,0,0,0,2.13-2.7,33.3,33.3,0,0,1-.88-5.83q-.08-1.16-.15-3.75a7.15,7.15,0,0,0-4.16,3.43,10.17,10.17,0,0,0-1.36,6q.23,3.49,2.64,3.57A2.65,2.65,0,0,0,348.49,307.32Zm8-31.79a57.7,57.7,0,0,0-1,8.52c-.19,3.51-.24,7.17-.17,11,3-7.79,4.37-14.14,4-18.92a10.93,10.93,0,0,0-.51-2.86c-.25-.68-.52-1-.81-1C357.46,272.26,356.93,273.35,356.48,275.53Z"/><path class="cls-1" d="M399.25,298.68a1.38,1.38,0,0,1,1.14.49,2.41,2.41,0,0,1,.5,1.36,4.36,4.36,0,0,1-.38,2.45,3,3,0,0,1-1.62,1.29,13.82,13.82,0,0,1-4.65.73,13.07,13.07,0,0,1-4-.63q-1.21,2.34-2.7,4.81a14.93,14.93,0,0,1-3,3.82,4.54,4.54,0,0,1-3,1,3.63,3.63,0,0,1-3-1.61,12,12,0,0,1-1.61-5.06l-.51-3.61a42.14,42.14,0,0,1-2.2,6.25,7.51,7.51,0,0,1-2.14,2.93,4.27,4.27,0,0,1-2.71.76,4.09,4.09,0,0,1-3.22-1.67,11,11,0,0,1-1.78-5q-1.06-6.86-1.42-11.95l-.12-1.71a2.53,2.53,0,0,1,.7-2.22,3.68,3.68,0,0,1,2.39-.61,2.83,2.83,0,0,1,1.89.58,2.71,2.71,0,0,1,.73,1.89q.41,5.63,1.74,14.66a150.2,150.2,0,0,0,4.92-14.54,3.63,3.63,0,0,1,1.12-2,2.93,2.93,0,0,1,1.76-.51,2.58,2.58,0,0,1,1.83.55,3.09,3.09,0,0,1,.65,1.94c.29,3.79.88,8.72,1.8,14.82,1.7-2.91,3-5.25,3.78-7a8.11,8.11,0,0,1-1-3.44,7.46,7.46,0,0,1,.46-3.27,6.32,6.32,0,0,1,1.76-2.59,4.14,4.14,0,0,1,2.75-1,3,3,0,0,1,2.32,1,4.79,4.79,0,0,1,1.1,3,13.71,13.71,0,0,1-.74,5.16,30,30,0,0,0,4.78-.75l1.27-.26A1.79,1.79,0,0,1,399.25,298.68Z"/><path class="cls-1" d="M399,312a12.43,12.43,0,0,1-1.91-6.15,39.87,39.87,0,0,1,.08-5.8,55,55,0,0,1,.89-6.62,3.9,3.9,0,0,1,1-2.22,3.36,3.36,0,0,1,2.24-.64q2.43,0,2.58,1.68a41.45,41.45,0,0,1-.43,5.87,46.31,46.31,0,0,0-.54,7.53,6,6,0,0,0,.58,2.33,1.45,1.45,0,0,0,1.36.8,3.19,3.19,0,0,0,2.06-1.27,36.64,36.64,0,0,0,3.12-4,1.55,1.55,0,0,1,1.24-.73,1.19,1.19,0,0,1,1,.6,3.4,3.4,0,0,1,.5,1.67,4.64,4.64,0,0,1-.64,3.17c-2.83,4.14-5.63,6.18-8.39,6.17A5.45,5.45,0,0,1,399,312Zm-.18-25.7a3.88,3.88,0,0,1-1.22-2.72,3.61,3.61,0,0,1,1.07-3,5,5,0,0,1,6.1-.43,3.34,3.34,0,0,1,1.31,2.55,4,4,0,0,1-1,3.24,4.29,4.29,0,0,1-3.19,1.26A4.4,4.4,0,0,1,398.82,286.27Z"/><path class="cls-1" d="M411.28,311.49a11.25,11.25,0,0,1-3.24-7.42,15.46,15.46,0,0,1,.93-7.22,11.25,11.25,0,0,1,3.57-4.87,8.58,8.58,0,0,1,5-1.84,5.4,5.4,0,0,1,4.22,1.51,6.6,6.6,0,0,1,1.83,4.23,6.82,6.82,0,0,1-.56,3.68,2.45,2.45,0,0,1-2.2,1.56,2.28,2.28,0,0,1-1.5-.42,1.69,1.69,0,0,1-.66-1.26,3.9,3.9,0,0,1,0-.82c0-.31.06-.53.08-.67a4.57,4.57,0,0,0,.12-1.44,1.61,1.61,0,0,0-.4-1,1.19,1.19,0,0,0-.92-.33,2.59,2.59,0,0,0-2,1.11,7,7,0,0,0-1.29,2.87,12.26,12.26,0,0,0-.25,3.93c.34,3.94,2.12,5.9,5.36,5.84a7.5,7.5,0,0,0,4.12-1.51,16,16,0,0,0,4.12-4.39,1.57,1.57,0,0,1,1.23-.77,1.15,1.15,0,0,1,1,.58,3.55,3.55,0,0,1,.52,1.69,5.18,5.18,0,0,1-.63,3.24,14.23,14.23,0,0,1-5,4.77,12.32,12.32,0,0,1-5.94,1.74A10.12,10.12,0,0,1,411.28,311.49Z"/><path class="cls-1" d="M444.52,289.51a3.65,3.65,0,0,1,1,2.47,43.19,43.19,0,0,1-.05,5.16q-.18,3.23-.2,6.09a61.69,61.69,0,0,0,.3,6.38,4.29,4.29,0,0,1-.48,2.89,2.93,2.93,0,0,1-2.35,1,2.89,2.89,0,0,1-2.39-.77,4.27,4.27,0,0,1-1-2.62,56.65,56.65,0,0,1,0-6.9,52.91,52.91,0,0,0,.09-5.35c-.05-.55-.25-.82-.6-.8s-.95.65-1.61,1.85a25.09,25.09,0,0,0-1.88,4.71,38.13,38.13,0,0,0-1.33,6.1,8.18,8.18,0,0,1-.93,3.34,2.51,2.51,0,0,1-2.11.93,2.55,2.55,0,0,1-2.3-1.1,9.36,9.36,0,0,1-1.25-3.55q-.45-2.41-.87-7.11a96,96,0,0,1,.06-16.6,52.18,52.18,0,0,1,3.15-14.73q2.38-6.06,6.46-6.42A4.07,4.07,0,0,1,440,266.2a9.63,9.63,0,0,1,1.84,5.21,24.38,24.38,0,0,1-1.81,11.14,64.32,64.32,0,0,1-8,13.74c.06,1.79.18,3.64.35,5.54a30.13,30.13,0,0,1,2.87-7.36,14.27,14.27,0,0,1,3.46-4.21,6.56,6.56,0,0,1,3.35-1.44A3,3,0,0,1,444.52,289.51Zm-10.38-17a47.75,47.75,0,0,0-1.38,7.34q-.57,4.59-.71,10a35.79,35.79,0,0,0,4.14-8.55,20.45,20.45,0,0,0,1.19-8.24,7.48,7.48,0,0,0-.56-2.51q-.4-.86-1-.81C435.23,269.73,434.67,270.67,434.14,272.5Z"/><rect class="cls-2" x="6" y="20.93" width="114.34" height="53.66" transform="translate(-13.97 29.82) rotate(-24)"/><path class="cls-3" d="M34.4,74.2,25.2,53.53l5.37-2.39,15.55,8.22L40.49,46.73l5.35-2.38L55,65l-5.35,2.38L34.15,59.17l5.62,12.64Z"/><path class="cls-3" d="M64,41.73l-6.39,2.85L59.1,48l6-2.69,2,4.55-6,2.69,1.58,3.56L69.1,53.3l2,4.55L59.37,63.08l-9.2-20.66,11.75-5.24Z"/><path class="cls-3" d="M69.24,33.92l9.51,11.77-1.56-15.3,4.27-1.91,10.33,11.4L89.41,24.94,95,22.44l3,23.41-5.48,2.44L83.19,38.12,84.47,51.9,79,54.35,63.62,36.43Z"/><path class="cls-1" d="M50.17,157.19A30.17,30.17,0,1,1,20,187.36a30.2,30.2,0,0,1,30.17-30.17m0-20a50.17,50.17,0,1,0,50.16,50.17,50.17,50.17,0,0,0-50.16-50.17Z"/><path class="cls-1" d="M50.17,177.81a9.55,9.55,0,1,1-9.55,9.55,9.55,9.55,0,0,1,9.55-9.55m0-15.4a24.95,24.95,0,1,0,24.94,25,24.95,24.95,0,0,0-24.94-25Z"/></g></g></svg>