<svg xmlns="http://www.w3.org/2000/svg" viewBox="0 0 218.67 218.87"><defs><style>.cls-1{fill:#fff;}</style></defs><g id="Layer_2" data-name="Layer 2"><g id="Layer_1-2" data-name="Layer 1"><path class="cls-1" d="M6.13,110.46l-.07,4L0,114.37.19,103.2l27.53.47-.12,7.16Z"/><path class="cls-1" d="M14.35,94.1a19.72,19.72,0,0,1-5.5-2.48A13.94,13.94,0,0,1,5.12,88a11,11,0,0,1-1.79-4.37A11.23,11.23,0,0,1,6,74.6a10.51,10.51,0,0,1,3.85-2.72,14,14,0,0,1,5.07-1,19.54,19.54,0,0,1,6,.84,19.72,19.72,0,0,1,5.5,2.48,14.31,14.31,0,0,1,3.75,3.58,10.55,10.55,0,0,1,1.81,4.37,10.76,10.76,0,0,1-6.5,11.78,13.9,13.9,0,0,1-5.09,1A18.94,18.94,0,0,1,14.35,94.1Zm2-6.8a15.69,15.69,0,0,0,3.29.61,9.59,9.59,0,0,0,2.74-.17,5,5,0,0,0,2-.91,3.23,3.23,0,0,0,1.11-1.66,3.17,3.17,0,0,0-.06-2,4.76,4.76,0,0,0-1.23-1.86A10.14,10.14,0,0,0,22,79.74a15.53,15.53,0,0,0-3.1-1.24,16.5,16.5,0,0,0-3.27-.61,9.94,9.94,0,0,0-2.74.16,4.76,4.76,0,0,0-2,.92,3.2,3.2,0,0,0-1.1,1.63,3.15,3.15,0,0,0,.05,2A5.08,5.08,0,0,0,11,84.45a9.49,9.49,0,0,0,2.23,1.61A15.11,15.11,0,0,0,16.32,87.3Z"/><path class="cls-1" d="M22.39,68.28a19.85,19.85,0,0,1-4.58-3.93,13.8,13.8,0,0,1-2.57-4.5,10.88,10.88,0,0,1-.49-4.69,10.79,10.79,0,0,1,9.53-9.49,14.24,14.24,0,0,1,5.15.44,19.47,19.47,0,0,1,5.49,2.49,19.65,19.65,0,0,1,4.58,3.93A14.24,14.24,0,0,1,42.1,57,10.53,10.53,0,0,1,41,66.25a10.5,10.5,0,0,1-7.9,5,13.86,13.86,0,0,1-5.17-.44A19.2,19.2,0,0,1,22.39,68.28Zm3.8-6a15.49,15.49,0,0,0,3,1.51,9.64,9.64,0,0,0,2.69.61,5.18,5.18,0,0,0,2.21-.3,3.26,3.26,0,0,0,2-3.19,4.7,4.7,0,0,0-.66-2.13,10.29,10.29,0,0,0-1.69-2.16,16.06,16.06,0,0,0-2.63-2.07,15.28,15.28,0,0,0-3-1.49,9.76,9.76,0,0,0-2.67-.63,4.82,4.82,0,0,0-2.19.32A3.09,3.09,0,0,0,21.77,54,3.16,3.16,0,0,0,21.26,56a4.92,4.92,0,0,0,.64,2.12,9.4,9.4,0,0,0,1.68,2.18A15.89,15.89,0,0,0,26.19,62.3Z"/><path class="cls-1" d="M33.11,38.38a6.57,6.57,0,0,1-1.23-2.54,5.66,5.66,0,0,1,0-2.62A7.33,7.33,0,0,1,33,30.71a10.4,10.4,0,0,1,2.2-2.26,8.38,8.38,0,0,1,2.62-1.38,7.25,7.25,0,0,1,2.69-.34,6.18,6.18,0,0,1,2.5.74,6.37,6.37,0,0,1,2.06,1.8,6.72,6.72,0,0,1,1.27,2.59,6.29,6.29,0,0,1,.07,2.66,7,7,0,0,1-1.08,2.56,9.78,9.78,0,0,1-2.17,2.25,7.7,7.7,0,0,1-5.41,1.82A6.49,6.49,0,0,1,33.11,38.38Zm3.56-2.62a3.12,3.12,0,0,0,2,1.2,2.87,2.87,0,0,0,2.34-.6,2.91,2.91,0,0,0,.79-.92,3.46,3.46,0,0,0,.37-1.14,3.42,3.42,0,0,0-.06-1.19,2.94,2.94,0,0,0-.52-1.1,3,3,0,0,0-.95-.82,3.35,3.35,0,0,0-1.15-.36,3.41,3.41,0,0,0-1.19.09,3.16,3.16,0,0,0-1.06.51,3,3,0,0,0-1.18,2A2.91,2.91,0,0,0,36.67,35.76ZM47.77,19.2l2.82-2.15,4.06,31.56-2.84,2.18Zm9.46,19.21A6.57,6.57,0,0,1,56,35.87a6,6,0,0,1,0-2.6,6.89,6.89,0,0,1,1.13-2.52,9.85,9.85,0,0,1,2.21-2.27A8.43,8.43,0,0,1,62,27.05a6.75,6.75,0,0,1,2.68-.31,6.43,6.43,0,0,1,4.54,2.53,6.91,6.91,0,0,1,1.26,2.55,6.09,6.09,0,0,1,.08,2.65A7.22,7.22,0,0,1,69.5,37a9.56,9.56,0,0,1-2.18,2.29,9.42,9.42,0,0,1-2.71,1.48,6.88,6.88,0,0,1-2.7.34,6,6,0,0,1-2.53-.8A7.66,7.66,0,0,1,57.23,38.41Zm3.58-2.65A3.09,3.09,0,0,0,62.88,37a3,3,0,0,0,2.31-.62A3.11,3.11,0,0,0,65.76,32a2.79,2.79,0,0,0-.94-.81,3.23,3.23,0,0,0-1.15-.37,3.47,3.47,0,0,0-1.2.09,3.16,3.16,0,0,0-1.06.51,3.05,3.05,0,0,0-1.17,2A2.86,2.86,0,0,0,60.81,35.76Z"/><path class="cls-1" d="M98.33,8A9,9,0,0,0,95.8,7a6.26,6.26,0,0,0-2.31-.08,3.66,3.66,0,0,0-2.13,1,2.05,2.05,0,0,0-.58,1.84,1.68,1.68,0,0,0,.63,1.11,3.68,3.68,0,0,0,1.27.63,9.61,9.61,0,0,0,1.68.33c.62.07,1.23.15,1.84.25a11,11,0,0,1,5.57,2.24,7.67,7.67,0,0,1,2.44,4.75,9.77,9.77,0,0,1-.08,3.9,8,8,0,0,1-1.57,3.25,9.59,9.59,0,0,1-3,2.42,13.93,13.93,0,0,1-4.34,1.4,16.61,16.61,0,0,1-10-1.47l2.08-6.2A12.29,12.29,0,0,0,90.73,24a7.5,7.5,0,0,0,3.17.18,3.71,3.71,0,0,0,2.45-1.22A2.47,2.47,0,0,0,96.9,21a2.44,2.44,0,0,0-.4-1,2.34,2.34,0,0,0-.85-.71,5.51,5.51,0,0,0-1.44-.48c-.57-.13-1.27-.26-2.08-.4s-1.91-.3-2.84-.51a8.48,8.48,0,0,1-2.57-1,6.54,6.54,0,0,1-2-1.91,7.85,7.85,0,0,1-1.19-3.23A9.84,9.84,0,0,1,83.57,8,8.07,8.07,0,0,1,85,4.86a8.29,8.29,0,0,1,2.65-2.31,11.22,11.22,0,0,1,3.8-1.3,17.48,17.48,0,0,1,4.31-.14,18.8,18.8,0,0,1,4.49.94Z"/><path class="cls-1" d="M119.17,1l-2.06,14.83c-.11.8-.19,1.62-.25,2.46a7,7,0,0,0,.23,2.33,3.82,3.82,0,0,0,1.21,1.85,6.34,6.34,0,0,0,5.48.76,4.07,4.07,0,0,0,1.65-1.45,6.5,6.5,0,0,0,.88-2.19c.17-.82.31-1.63.42-2.42l2.06-14.83,7.05,1L133.65,19.1q-.89,6.36-4.2,8.89t-9.36,1.69q-6-.84-8.56-4.17t-1.64-9.7L112.08,0Z"/><path class="cls-1" d="M158.18,20.1a9,9,0,0,0-1.51-2.27,6.2,6.2,0,0,0-1.85-1.38,3.62,3.62,0,0,0-2.33-.37A2.05,2.05,0,0,0,151,17.25a1.8,1.8,0,0,0-.12,1.28,3.82,3.82,0,0,0,.69,1.23A9.78,9.78,0,0,0,152.72,21c.47.4.93.82,1.37,1.25a11,11,0,0,1,3.3,5,7.75,7.75,0,0,1-.71,5.3,10.05,10.05,0,0,1-2.29,3.16,7.89,7.89,0,0,1-3.14,1.76,9.54,9.54,0,0,1-3.85.28A13.94,13.94,0,0,1,143,36.45a16.59,16.59,0,0,1-7.42-7l5.25-3.9a12.16,12.16,0,0,0,2,3.27,7.7,7.7,0,0,0,2.51,2,3.69,3.69,0,0,0,2.7.39,2.47,2.47,0,0,0,1.82-2.35,2.32,2.32,0,0,0-.3-1.07,5.79,5.79,0,0,0-.9-1.21c-.4-.44-.89-.94-1.48-1.52s-1.4-1.34-2.05-2a8.56,8.56,0,0,1-1.54-2.28A6.43,6.43,0,0,1,143,18a7.64,7.64,0,0,1,.87-3.32,9.52,9.52,0,0,1,2.19-3.06A8.18,8.18,0,0,1,149,9.89a8.36,8.36,0,0,1,3.49-.39,11.45,11.45,0,0,1,3.87,1.1A17.94,17.94,0,0,1,160,12.94a18.7,18.7,0,0,1,3.14,3.33Z"/><path class="cls-1" d="M177.17,32.48,163.48,49,158,44.46l13.68-16.54-4.53-3.75L171,19.5l14.57,12.05-3.86,4.67Z"/><path class="cls-1" d="M182.15,63.79l-5.92-8.33-4.85,1.43L167,50.67l28.51-7.42L200,49.61,183.63,74.12l-4.42-6.22Zm3.34-4.71,5.6-7.93-9.33,2.7Z"/><path class="cls-1" d="M211.52,72.74,185.91,82.86l-2.63-6.66,25.61-10.12Z"/><path class="cls-1" d="M188.22,86.59l27.35-3.1.81,7.11-15.24,15,16.73-1.9.8,7.08-27.35,3.1-.81-7.07,15.24-15L189,93.7Z"/><path class="cls-1" d="M191.31,135.21l2.46-9.92-4.25-2.74,1.83-7.41,24.21,16.79-1.88,7.59-29.24,3.55,1.83-7.41Zm5.74-.53,9.67-.91-8.13-5.33Z"/><path class="cls-1" d="M206.66,158.52,201,167.58a8.16,8.16,0,0,1-4.59,3.94,6.82,6.82,0,0,1-5.51-1.09A7.07,7.07,0,0,1,188.4,168a6.21,6.21,0,0,1-.76-3.16,8.72,8.72,0,0,1-2.14,1.75,5.75,5.75,0,0,1-2.18.71,5.63,5.63,0,0,1-2.19-.22,9.3,9.3,0,0,1-2.14-1,8.33,8.33,0,0,1-2.56-2.39,7,7,0,0,1-1.14-2.94,8.07,8.07,0,0,1,.27-3.34,13.86,13.86,0,0,1,1.64-3.62l6.06-9.77ZM184.21,153l-.83,1.33a8,8,0,0,0-1.45,3.66,2.71,2.71,0,0,0,3.79,2.34,7.94,7.94,0,0,0,2.63-2.92l.82-1.33Zm9.49,5.89L193,160q-1.77,2.86.49,4.26t4-1.45l.69-1.11Z"/><path class="cls-1" d="M183.85,188.48,169,173l-6.21,5.92-4.18-4.39L170,163.62l19,19.92Z"/><path class="cls-1" d="M154.16,202.19l7.33-4.33-2.34-4L152.23,198l-3.08-5.22,6.91-4.09-2.41-4.09-7.32,4.33-3.09-5.22,13.5-8,14,23.71-13.49,8Z"/><path class="cls-1" d="M130.82,189.69l-3.11,27.76-7.07.4-6.34-14.34-4.64,15-7.07.4-6.22-27.22,7.11-.4,3.26,15.68,5.59-16.19,2.85-.16,7.06,15.47,1.47-16Z"/><path class="cls-1" d="M73,206.15l8.19,2.32,1.25-4.42-7.73-2.19L76.4,196l7.73,2.19,1.29-4.57-8.19-2.32,1.65-5.83L94,189.77l-7.51,26.49L71.38,212Z"/><path class="cls-1" d="M58.72,179.61l8.64,5.46,3.94-3.17L77.76,186,54.2,203.66l-6.61-4.17,5.84-28.88,6.45,4.08Zm-1.3,5.61-2.18,9.47,7.61-6Z"/><path class="cls-1" d="M30.9,176.47l15.79-14.55,4.85,5.26L35.75,181.73l4,4.32-4.46,4.11L22.46,176.25l4.46-4.11Z"/><path class="cls-1" d="M13.41,142.62a5.11,5.11,0,0,1-.27-2.22,5.92,5.92,0,0,1,.62-2.11,6.11,6.11,0,0,1,1.33-1.74A5.48,5.48,0,0,1,17,135.43a5.79,5.79,0,0,1,2.27-.32,5.87,5.87,0,0,1,2.12.54,5.55,5.55,0,0,1,1.76,1.3,5.43,5.43,0,0,1,1.17,2,5.32,5.32,0,0,1,.29,2.22,6,6,0,0,1-.57,2.09A5.82,5.82,0,0,1,22.71,145a5.35,5.35,0,0,1-2,1.17,5.74,5.74,0,0,1-2.26.32,5.82,5.82,0,0,1-2.12-.54,5.68,5.68,0,0,1-2.95-3.31Z"/><path class="cls-1" d="M108.92,79.37a30.17,30.17,0,1,1-30.17,30.16,30.19,30.19,0,0,1,30.17-30.16m0-20a50.17,50.17,0,1,0,50.16,50.16,50.17,50.17,0,0,0-50.16-50.16Z"/><path class="cls-1" d="M108.92,99.62A9.92,9.92,0,1,1,99,109.53a9.93,9.93,0,0,1,9.92-9.91m0-16a25.92,25.92,0,1,0,25.91,25.91,25.91,25.91,0,0,0-25.91-25.91Z"/></g></g></svg>