<svg xmlns="http://www.w3.org/2000/svg" viewBox="0 0 861.09 137.27"><defs><style>.cls-1{fill:#fff;}</style></defs><g id="Layer_2" data-name="Layer 2"><g id="Layer_1-2" data-name="Layer 1"><path class="cls-1" d="M60.35.7c5,.55,8.51.83,12.69,1.67,13.91,2.79,27.21,7,37.88,16.8,20,18.31,19.45,52.14-1,71.09-11.26,10.43-25.09,15.35-40,17.81-5,.82-10,1.33-15,1.66-2.19.15-2.74.88-2.71,2.91.1,6.23-.1,12.46.09,18.68.09,2.86-.49,4-3.74,4q-16.74-.31-33.5,0c-3.23.06-3.75-1.08-3.74-4,.09-31,0-62,.14-93,0-3.61-.87-5-4.47-4.23-.92.18-1.92,0-2.85.12-2.68.44-3.67-.56-3.46-3.27.1-1.34.77-3-.75-4.12V1.63C4.9,1.05,10.35,0,14.71,0,30,0,45.28,0,60.35.7ZM52.32,56V75.09c0,1.48-.31,3.09,2.11,2.93,8.38-.53,16.57-1.74,23.16-7.53a19.08,19.08,0,0,0-3.18-31.27C68.51,35.86,62,34.73,55.28,34.1c-2.33-.22-3.06.51-3,2.84C52.41,43.3,52.32,49.66,52.32,56Z"/><path class="cls-1" d="M476.88,82.78c-13.21,0-26.42.07-39.63,0-3.08,0-3.82.67-2.55,3.65,4.43,10.44,12.65,15.54,23.59,16.81,13.53,1.58,25.9-1.89,37.22-9.12,2.39-1.53,3.25-1.17,4.47,1.14,4.11,7.78,8.31,15.52,12.71,23.14,1.37,2.36,1.23,3.52-1.13,5.13a77.65,77.65,0,0,1-34,12.69c-15.58,2.07-31,1.51-45.77-4.36-23.31-9.26-35.72-27-39.32-51.15-2.39-16-.46-31.71,7.53-46,12.88-23.1,33.6-33,59.52-32.91,17.28.09,33.09,4.65,45.35,17.77,9.64,10.32,14.2,22.85,15.86,36.59.9,7.42.37,14.84-.11,22.26-.19,3-1.05,4.65-4.89,4.56C502.77,82.58,489.83,82.78,476.88,82.78ZM457.31,55.26c7.21,0,14.42-.13,21.62.06,2.76.07,3.14-.81,2.64-3.25-1.69-8.34-6.15-14.31-14.39-17.11-14.67-5-28.8,2.54-33.32,17.44-.79,2.61-.08,2.93,2.24,2.9C443.17,55.2,450.24,55.26,457.31,55.26Z"/><path class="cls-1" d="M715.78,82.78c-13.21,0-26.43.11-39.64-.07-3.4,0-3.55,1.05-2.39,3.63,6.28,14,18,17.61,30.94,17.24a53.42,53.42,0,0,0,27-8.18c1.91-1.19,2.62-.84,3.54,1.1,4.07,8.55,8.23,17.06,12.55,25.49,1.08,2.1.16,2.79-1.36,3.73a76.14,76.14,0,0,1-30.19,10.46c-15.6,2.08-31,1.5-45.76-4.5-19.3-7.85-31.76-21.92-37.06-41.94-4.69-17.68-3.88-35.16,3.93-51.91C650,10.76,677-.24,703.86,1.93c12.59,1,24.37,4.35,34.38,12.36C751,24.54,757.11,38.36,759.43,54.17c1.23,8.38.75,16.72,0,25.1-.24,2.82-1.29,3.59-4,3.57C742.21,82.72,729,82.78,715.78,82.78ZM696.32,55.26c7.36,0,14.71,0,22.06,0,1.82,0,2.83-.22,2.41-2.44-1.27-6.68-4.21-12.26-10.23-15.86-14.49-8.67-33.61-.77-37.72,15.51-.56,2.19,0,2.83,2.24,2.8C682.16,55.19,689.24,55.26,696.32,55.26Z"/><path class="cls-1" d="M197.44,135.83c-33.44,0-60.71-20.72-67-52.32C121.83,40.66,150.85,6.91,189,3.14c27.88-2.75,51.05,6.33,66.41,30.07,24.59,38,5.56,93.57-46.59,101.86A76.17,76.17,0,0,1,197.44,135.83ZM168.2,68.2c.13,10.88,3.31,19.7,11.6,26,12.74,9.67,31.46,7.23,40.91-5.09,10.38-13.52,8.18-35.3-4.78-45-9.8-7.36-20.72-8.19-31.55-3C172.9,46.53,168.5,56.72,168.2,68.2Z"/><path class="cls-1" d="M275.58,85.13c0-15.56-.07-31.12.07-46.68,0-2.87-.76-3.69-3.66-3.54-6.86.35-6.88.21-7.07-6.76-.21-7.57-.2-15.15-.66-22.71-.2-3.34,2.12-2.72,3.7-2.81q11.81-.73,23.63-1.08c17-.49,34-.68,50.71,3.36,11.36,2.75,21.95,7,31,14.65,20.16,16.92,19.07,48.79,4.19,66.44-11.1,13.16-26.06,19-42.42,22.09a73.28,73.28,0,0,1-15,1.75c-3.33,0-4.05,1.39-3.94,4.4.22,5.81,0,11.64.11,17.46.06,2.5-.5,3.61-3.36,3.57Q296,135,279,135.27c-3.1,0-3.51-1.24-3.5-3.85C275.63,116,275.58,100.56,275.58,85.13Zm40.66-28.65c0,6.5,0,13,0,19.49,0,1.7.19,3,2.39,2.73,6.64-.74,13.29-1.49,19.13-5.09,6.82-4.21,10.1-10.32,9.79-18.36-.29-7.44-4.27-12.31-10.61-15.62-5.65-3-11.83-3.85-18.06-4.61-2.4-.29-2.67.84-2.65,2.77C316.29,44,316.24,50.25,316.24,56.48Z"/><path class="cls-1" d="M814.4,1.31c17.27.16,32.67,4.86,44.87,17.78,2.15,2.28,2.65,3.74.1,6.21-6.13,5.94-12,12.18-17.83,18.41-1.65,1.75-2.65,2-4.5.1A33.49,33.49,0,0,0,816.7,33.6a18.5,18.5,0,0,0-10.35,1.5c-5.18,2.48-5.9,8.14-1.61,11.95a19.12,19.12,0,0,0,5.61,3.26c8.18,3.31,16.49,6.31,24.52,9.95C847.46,66,856.77,74.58,859.33,89c3.48,19.67-5.07,35.83-24.38,42.81-23.49,8.48-46.45,6.39-68.34-6-3.08-1.74-3.36-3.27-1.7-6.33,3.72-6.9,7-14,10.36-21.13,1.1-2.35,2.05-2.81,4.51-1.47,9.42,5.15,19.43,8.32,30.35,8a18.37,18.37,0,0,0,6.75-1.38c4.62-2,5.46-6.7,1.83-10.18-2.52-2.42-5.79-3.49-9-4.67-8.66-3.19-17.47-5.94-25.56-10.53-21.26-12.06-28-38.89-14.3-58.29,7.33-10.42,18.21-15,30.29-17.34A88,88,0,0,1,814.4,1.31Z"/><path class="cls-1" d="M508.1,6.5c14.44,0,28.19.07,41.95-.06,2.38,0,2.87,1.35,3.61,3q10.47,23.54,21,47.05c.55,1.21.83,2.6,2.21,3.66l16.51-35.31Q597.1,16.95,600.78,9c.62-1.33,1-2.59,3.08-2.57,14.15.09,28.3,0,42.47,0,.42,2-.89,3.27-1.61,4.62Q622,54,599.21,96.84a14,14,0,0,0-1.71,7c.1,9.48,0,19,.1,28.44,0,2.65-.7,3.46-3.41,3.43q-18-.21-36,0c-2.49,0-3.29-.65-3.25-3.18.14-9.48,0-19,.1-28.44a16.91,16.91,0,0,0-1.92-8.13q-21.43-42.18-42.73-84.41C509.71,10.07,509.08,8.61,508.1,6.5Z"/></g></g></svg>